<svg width="191" height="159" viewBox="0 0 191 159" fill="none" xmlns="http://www.w3.org/2000/svg">
<path d="M97.9084 92.9726L71.4306 101.406M97.9084 92.9726V69.8291M97.9084 92.9726L124.582 101.406M87.1212 108.663C84.3753 110.559 77.8637 116.273 73.7842 123.961M108.892 108.663C112.226 111.736 119.601 119.097 122.425 123.961M97.5162 109.252C96.9341 115.488 96.9569 120.627 98.2991 123.961M113.795 128.08C104.644 130.34 100.178 128.629 98.2991 123.961M98.2991 123.961C97.2536 126.642 92.0245 132.003 85.1599 130.042M97.9084 133.964C97.9084 142.398 97.3492 145.34 98.6914 148.674M98.6914 148.674C100.57 153.342 105.036 150.934 114.187 148.674M98.6914 148.674C97.6459 151.355 92.4167 152.597 85.5521 150.635M62.0163 98.8566C61.9778 103.786 59.7928 112.247 52.9993 119.843M48.0909 106.31C52.6622 100.873 49.1834 82.4341 45.3911 68.4561M45.3911 68.4561C44.3672 64.6821 43.3204 61.2332 42.4031 58.4534C41.8147 59.0418 66.135 10.0088 18.8673 27.2684C15.4153 36.212 20.3056 52.1772 23.1822 59.0418C8.90379 106.427 22.5938 128.08 31.2236 132.984C41.281 130.018 48.2611 125.141 52.9993 119.843M45.3911 68.4561C48.1216 62.8991 57.1522 52.3733 71.4306 54.7269L90.6515 61.9838M52.9993 119.843C59.6661 129.584 72.1367 150.753 68.6848 157.5M133.604 98.8566C133.643 103.786 135.828 112.247 142.621 119.843M147.53 106.31C142.959 100.873 146.437 82.4341 150.23 68.4561M150.23 68.4561C151.253 64.6821 152.3 61.2332 153.218 58.4534C153.806 59.0418 129.486 10.0088 176.753 27.2684C180.205 36.2121 175.315 52.1772 172.438 59.0418C186.717 106.427 173.027 128.08 164.397 132.984C154.34 130.018 147.36 125.141 142.621 119.843M150.23 68.4561C147.499 62.8991 138.468 52.3733 124.19 54.7269L104.969 61.9838M142.621 119.843C135.955 129.584 123.484 150.753 126.936 157.5" stroke="white" stroke-width="2" stroke-linecap="round"/>
<path d="M2 35.7021H15.337M50.0523 35.7021H145.176M180.088 35.7021H189.11" stroke="white" stroke-width="3" stroke-linecap="round"/>
<path d="M70.3649 1.15496C70.3649 1.47673 70.25 1.7468 70.0201 1.96515C69.8018 2.19499 69.5317 2.30991 69.21 2.30991H62.3147C62.0963 2.3214 61.9125 2.37312 61.7631 2.46506C61.6252 2.5455 61.5217 2.64318 61.4528 2.7581C61.3838 2.86153 61.3494 2.97071 61.3494 3.08563C61.3494 3.20055 61.3838 3.31547 61.4528 3.43039C61.5217 3.53382 61.6252 3.6315 61.7631 3.72344C61.9125 3.80389 62.0963 3.84985 62.3147 3.86135H67.2103C68.0148 3.88433 68.6756 4.07395 69.1927 4.4302C69.7214 4.77497 70.0948 5.17719 70.3132 5.63688C70.543 6.08507 70.658 6.54475 70.658 7.01593C70.658 7.47561 70.543 7.9353 70.3132 8.39498C70.0834 8.84317 69.7099 9.2454 69.1927 9.60165C68.6756 9.94641 68.0148 10.1188 67.2103 10.1188H67.1069C67.0379 10.1303 66.969 10.136 66.9 10.136H60.384C60.0622 10.136 59.7864 10.0269 59.5566 9.80851C59.3382 9.57867 59.2291 9.30286 59.2291 8.98108C59.2291 8.6593 59.344 8.38923 59.5738 8.17088C59.7922 7.94104 60.0622 7.82612 60.384 7.82612H67.3138C67.5321 7.83761 67.7102 7.79739 67.8481 7.70545C67.9975 7.61352 68.1067 7.51009 68.1757 7.39517C68.2446 7.26875 68.2791 7.14234 68.2791 7.01593C68.2791 6.93548 68.2446 6.82631 68.1757 6.6884C68.1067 6.53901 67.9975 6.41834 67.8481 6.3264C67.7102 6.23446 67.5321 6.18275 67.3138 6.17126H62.4181C61.6137 6.14827 60.9471 5.9644 60.4185 5.61964C59.9014 5.27487 59.5279 4.88414 59.298 4.44744C59.0797 3.99925 58.9705 3.54531 58.9705 3.08563C58.9705 2.63744 59.0854 2.19499 59.3153 1.75829C59.5451 1.3101 59.9186 0.913622 60.4357 0.568859C60.9529 0.224096 61.6137 0.0402224 62.4181 0.0172382H62.5215C62.5905 0.00574605 62.6595 0 62.7284 0H69.21C69.5317 0 69.8018 0.114921 70.0201 0.344763C70.25 0.563113 70.3649 0.833177 70.3649 1.15496Z" fill="white"/>
<path d="M72.4376 1.15496C72.4376 0.833177 72.5468 0.563113 72.7652 0.344763C72.995 0.114921 73.2708 0 73.5926 0H83.6252C83.947 0 84.2228 0.109175 84.4526 0.327525C84.671 0.557367 84.7801 0.833177 84.7801 1.15496C84.7801 1.47673 84.6652 1.75255 84.4354 1.98239C84.217 2.20074 83.947 2.30991 83.6252 2.30991H79.7811V9.29136C79.7121 9.98089 79.3329 10.3544 78.6434 10.4118C78.3216 10.4118 78.04 10.3084 77.7987 10.1016C77.5689 9.88321 77.4539 9.61314 77.4539 9.29136V2.30991H73.5926C73.2708 2.30991 73.0007 2.19499 72.7824 1.96515C72.5525 1.7468 72.4376 1.47673 72.4376 1.15496Z" fill="white"/>
<path d="M89.0938 9.29136C89.0249 9.98089 88.6456 10.3544 87.9561 10.4118C87.6343 10.4118 87.3528 10.3084 87.1114 10.1016C86.8816 9.88321 86.7667 9.61314 86.7667 9.29136V1.12048C86.7782 0.798701 86.8988 0.534383 87.1287 0.327525C87.3585 0.109175 87.6343 0 87.9561 0H95.1789C95.2478 0 95.3168 0.00574605 95.3857 0.0172382H95.4892C96.2936 0.0402224 96.9544 0.224096 97.4716 0.568859C97.9887 0.913622 98.3622 1.3101 98.592 1.75829C98.8219 2.19499 98.9368 2.63744 98.9368 3.08563C98.9368 3.54531 98.8219 3.99925 98.592 4.44744C98.3737 4.88414 98.0002 5.27487 97.4716 5.61964C96.9544 5.9644 96.2936 6.14827 95.4892 6.17126H92.4553C92.5472 6.74586 92.7368 7.17107 93.0241 7.44688C93.2999 7.72269 93.6504 7.8606 94.0756 7.8606H97.7991C98.1209 7.87209 98.3852 7.99276 98.592 8.2226C98.8104 8.45244 98.9196 8.72825 98.9196 9.05003C98.9081 9.36032 98.7932 9.62463 98.5748 9.84298C98.3679 10.0498 98.1094 10.159 97.7991 10.1705H93.7654C92.9149 10.182 92.145 9.84873 91.4554 9.1707C90.7659 8.49266 90.3465 7.68822 90.1971 6.75736C89.9902 5.72307 89.8868 5.14272 89.8868 5.0163C89.8868 4.69452 89.9959 4.42446 90.2143 4.20611C90.4441 3.97627 90.72 3.86135 91.0417 3.86135H95.5926C95.811 3.84985 95.9891 3.80389 96.127 3.72344C96.2764 3.6315 96.3856 3.53382 96.4545 3.43039C96.5235 3.31547 96.5579 3.20055 96.5579 3.08563C96.5579 2.97071 96.5235 2.86153 96.4545 2.7581C96.3856 2.64318 96.2764 2.5455 96.127 2.46506C95.9891 2.37312 95.811 2.3214 95.5926 2.30991H89.542C89.2432 2.3214 89.0938 2.4708 89.0938 2.7581V9.29136Z" fill="white"/>
<path d="M104.181 0H110.835C111.157 0.0114921 111.421 0.132159 111.628 0.362001C111.847 0.591843 111.956 0.867654 111.956 1.18943C111.898 1.87896 111.525 2.25245 110.835 2.30991H104.767C104.331 2.3329 103.969 2.49953 103.681 2.80982C103.394 3.12011 103.182 3.47636 103.044 3.87858C102.917 4.26932 102.854 4.67154 102.854 5.08525C102.854 5.49897 102.917 5.90694 103.044 6.30916C103.182 6.69989 103.394 7.0504 103.681 7.36069C103.969 7.67098 104.331 7.83761 104.767 7.8606H110.835C111.157 7.87209 111.421 7.99276 111.628 8.2226C111.847 8.45244 111.956 8.72825 111.956 9.05003C111.944 9.36032 111.829 9.62463 111.611 9.84298C111.404 10.0498 111.146 10.159 110.835 10.1705H104.181C103.377 10.1245 102.71 9.82 102.182 9.25689C101.665 8.68228 101.291 8.03298 101.061 7.30898C100.843 6.58497 100.734 5.84373 100.734 5.08525C100.734 4.32678 100.849 3.58554 101.078 2.86153C101.308 2.13753 101.682 1.49397 102.199 0.93086C102.716 0.356255 103.377 0.0459684 104.181 0ZM111.921 5.0163C111.921 5.33808 111.806 5.60815 111.577 5.8265C111.358 6.05634 111.088 6.17126 110.766 6.17126H105.56C105.239 6.17126 104.963 6.06208 104.733 5.84373C104.515 5.61389 104.405 5.33808 104.405 5.0163C104.405 4.69452 104.515 4.41871 104.733 4.18887C104.963 3.97052 105.239 3.86135 105.56 3.86135H110.766C111.088 3.86135 111.358 3.97627 111.577 4.20611C111.806 4.42446 111.921 4.69452 111.921 5.0163Z" fill="white"/>
<path d="M117.062 0H123.716C124.038 0.0114921 124.302 0.132159 124.509 0.362001C124.728 0.591843 124.837 0.867654 124.837 1.18943C124.779 1.87896 124.406 2.25245 123.716 2.30991H117.648C117.212 2.3329 116.85 2.49953 116.562 2.80982C116.275 3.12011 116.063 3.47636 115.925 3.87858C115.798 4.26932 115.735 4.67154 115.735 5.08525C115.735 5.49897 115.798 5.90694 115.925 6.30916C116.063 6.69989 116.275 7.0504 116.562 7.36069C116.85 7.67098 117.212 7.83761 117.648 7.8606H123.716C124.038 7.87209 124.302 7.99276 124.509 8.2226C124.728 8.45244 124.837 8.72825 124.837 9.05003C124.825 9.36032 124.71 9.62463 124.492 9.84298C124.285 10.0498 124.027 10.159 123.716 10.1705H117.062C116.258 10.1245 115.591 9.82 115.063 9.25689C114.546 8.68228 114.172 8.03298 113.942 7.30898C113.724 6.58497 113.615 5.84373 113.615 5.08525C113.615 4.32678 113.73 3.58554 113.96 2.86153C114.189 2.13753 114.563 1.49397 115.08 0.93086C115.597 0.356255 116.258 0.0459684 117.062 0ZM124.802 5.0163C124.802 5.33808 124.687 5.60815 124.458 5.8265C124.239 6.05634 123.969 6.17126 123.647 6.17126H118.441C118.12 6.17126 117.844 6.06208 117.614 5.84373C117.396 5.61389 117.286 5.33808 117.286 5.0163C117.286 4.69452 117.396 4.41871 117.614 4.18887C117.844 3.97052 118.12 3.86135 118.441 3.86135H123.647C123.969 3.86135 124.239 3.97627 124.458 4.20611C124.687 4.42446 124.802 4.69452 124.802 5.0163Z" fill="white"/>
<path d="M126.41 1.15496C126.41 0.833177 126.519 0.563113 126.737 0.344763C126.967 0.114921 127.243 0 127.565 0H137.597C137.919 0 138.195 0.109175 138.425 0.327525C138.643 0.557367 138.752 0.833177 138.752 1.15496C138.752 1.47673 138.637 1.75255 138.407 1.98239C138.189 2.20074 137.919 2.30991 137.597 2.30991H133.753V9.29136C133.684 9.98089 133.305 10.3544 132.615 10.4118C132.294 10.4118 132.012 10.3084 131.771 10.1016C131.541 9.88321 131.426 9.61314 131.426 9.29136V2.30991H127.565C127.243 2.30991 126.973 2.19499 126.754 1.96515C126.525 1.7468 126.41 1.47673 126.41 1.15496Z" fill="white"/>
<path d="M53.7904 28.2189C53.3997 28.2189 53.009 28.1499 52.6182 28.012C52.239 27.8741 51.8712 27.673 51.515 27.4087C51.1587 27.1329 50.8484 26.7708 50.5841 26.3227C50.3198 25.8745 50.1762 25.3401 50.1532 24.7195V18.4965C50.1532 18.1748 50.2681 17.9104 50.4979 17.7036C50.7393 17.4852 51.0208 17.3761 51.3426 17.3761C52.0321 17.4335 52.4056 17.807 52.4631 18.4965V24.5816C52.4746 24.8574 52.532 25.093 52.6355 25.2884C52.7389 25.4722 52.8538 25.6216 52.9802 25.7366C53.1066 25.84 53.2331 25.9204 53.3595 25.9779C53.4974 26.0239 53.6353 26.0468 53.7732 26.0468C53.9111 26.0468 54.049 26.0239 54.1869 25.9779C54.3248 25.9204 54.457 25.84 54.5834 25.7366C54.7098 25.6216 54.8247 25.4722 54.9281 25.2884C55.0316 25.093 55.0833 24.8574 55.0833 24.5816V18.4965C55.0833 18.1748 55.1982 17.9104 55.4281 17.7036C55.6694 17.4852 55.9509 17.3761 56.2727 17.3761C56.9622 17.4335 57.3415 17.807 57.4104 18.4965V24.5816C57.4219 24.8574 57.4794 25.0873 57.5828 25.2711C57.6862 25.4665 57.8012 25.6216 57.9276 25.7366C58.054 25.84 58.1804 25.9204 58.3068 25.9779C58.4447 26.0239 58.5826 26.0468 58.7205 26.0468C58.8584 26.0468 58.9963 26.0239 59.1343 25.9779C59.2722 25.9204 59.4043 25.84 59.5307 25.7366C59.6571 25.6216 59.7721 25.4722 59.8755 25.2884C59.9789 25.093 60.0306 24.8574 60.0306 24.5816V18.4965C60.0306 18.1748 60.1456 17.9104 60.3754 17.7036C60.6167 17.4852 60.8983 17.3761 61.2201 17.3761C61.9096 17.4335 62.2888 17.807 62.3578 18.4965V24.7195C62.3578 25.3401 62.2199 25.8745 61.9441 26.3227C61.6798 26.7708 61.3695 27.1329 61.0132 27.4087C60.6684 27.673 60.3007 27.8741 59.91 28.012C59.5307 28.1499 59.14 28.2189 58.7378 28.2189C58.347 28.2189 57.9563 28.1499 57.5656 28.012C57.1863 27.8741 56.8186 27.6672 56.4623 27.3914C56.3934 27.3455 56.3302 27.2937 56.2727 27.2363C56.2038 27.2937 56.1406 27.3455 56.0831 27.3914C55.7268 27.6672 55.3534 27.8741 54.9626 28.012C54.5834 28.1499 54.1926 28.2189 53.7904 28.2189Z" fill="white"/>
<path d="M74.0494 17.6519C74.6355 17.6634 75.1584 17.8472 75.6181 18.2035C76.0777 18.5597 76.4455 18.985 76.7213 19.4791C77.0086 19.9733 77.2212 20.4962 77.3591 21.0478C77.497 21.5994 77.566 22.1625 77.566 22.7371C77.566 23.4956 77.4453 24.2426 77.204 24.9781C76.9741 25.7021 76.5891 26.3456 76.049 26.9088C75.5204 27.4719 74.8538 27.7764 74.0494 27.8224H68.0333C67.2288 27.7879 66.5565 27.4891 66.0164 26.926C65.4763 26.3629 65.0913 25.7136 64.8615 24.9781C64.6431 24.2426 64.5339 23.4956 64.5339 22.7371C64.5339 21.9786 64.6489 21.2374 64.8787 20.5134C65.1085 19.7779 65.4878 19.1286 66.0164 18.5655C66.5565 17.9909 67.2288 17.6863 68.0333 17.6519H74.0494ZM73.4633 25.5125C73.9 25.4895 74.262 25.3286 74.5493 25.0298C74.8481 24.7195 75.0607 24.3633 75.1871 23.961C75.3135 23.5588 75.3767 23.1508 75.3767 22.7371C75.3767 22.3234 75.3078 21.9212 75.1699 21.5305C75.0435 21.1282 74.8366 20.772 74.5493 20.4617C74.262 20.1514 73.9 19.9848 73.4633 19.9618H68.5677C68.131 19.9848 67.769 20.1514 67.4817 20.4617C67.1944 20.772 66.9818 21.1282 66.8438 21.5305C66.7174 21.9212 66.6542 22.3234 66.6542 22.7371C66.6542 23.1508 66.7174 23.5588 66.8438 23.961C66.9703 24.3633 67.1771 24.7195 67.4644 25.0298C67.7632 25.3286 68.131 25.4895 68.5677 25.5125H73.4633Z" fill="white"/>
<path d="M81.9486 26.9432C81.8797 27.6328 81.5004 28.0062 80.8109 28.0637C80.4891 28.0637 80.2076 27.9603 79.9662 27.7534C79.7364 27.5351 79.6215 27.265 79.6215 26.9432V18.7723C79.6329 18.4506 79.7536 18.1862 79.9835 17.9794C80.2133 17.761 80.4891 17.6519 80.8109 17.6519H88.0337C88.1026 17.6519 88.1716 17.6576 88.2405 17.6691H88.344C89.1484 17.6921 89.8092 17.876 90.3263 18.2207C90.8435 18.5655 91.217 18.962 91.4468 19.4102C91.6767 19.8469 91.7916 20.2893 91.7916 20.7375C91.7916 21.1972 91.6767 21.6511 91.4468 22.0993C91.2285 22.536 90.855 22.9267 90.3263 23.2715C89.8092 23.6163 89.1484 23.8001 88.344 23.8231H85.31C85.402 24.3977 85.5916 24.8229 85.8789 25.0987C86.1547 25.3746 86.5052 25.5125 86.9304 25.5125H90.6539C90.9756 25.524 91.24 25.6446 91.4468 25.8745C91.6652 26.1043 91.7744 26.3801 91.7744 26.7019C91.7629 27.0122 91.6479 27.2765 91.4296 27.4949C91.2227 27.7017 90.9642 27.8109 90.6539 27.8224H86.6201C85.7697 27.8339 84.9998 27.5006 84.3102 26.8226C83.6207 26.1445 83.2012 25.3401 83.0518 24.4092C82.845 23.3749 82.7416 22.7946 82.7416 22.6682C82.7416 22.3464 82.8507 22.0763 83.0691 21.858C83.2989 21.6281 83.5747 21.5132 83.8965 21.5132H88.4474C88.6657 21.5017 88.8439 21.4558 88.9818 21.3753C89.1312 21.2834 89.2403 21.1857 89.3093 21.0823C89.3782 20.9673 89.4127 20.8524 89.4127 20.7375C89.4127 20.6226 89.3782 20.5134 89.3093 20.41C89.2403 20.2951 89.1312 20.1974 88.9818 20.1169C88.8439 20.025 88.6657 19.9733 88.4474 19.9618H82.3968C82.098 19.9733 81.9486 20.1227 81.9486 20.41V26.9432Z" fill="white"/>
<path d="M95.0193 17.3761C95.3295 17.3875 95.5939 17.5025 95.8122 17.7208C96.0306 17.9277 96.1455 18.1862 96.157 18.4965V26.9432C96.088 27.6328 95.7088 28.0062 95.0193 28.0637C94.6975 28.0637 94.4159 27.9603 94.1746 27.7534C93.9447 27.5351 93.8298 27.265 93.8298 26.9432V18.4965C93.8413 18.1748 93.962 17.9104 94.1918 17.7036C94.4217 17.4852 94.6975 17.3761 95.0193 17.3761ZM97.967 20.41C98.737 19.8928 99.777 19.3699 101.087 18.8413L103.914 17.6346C104.041 17.5772 104.178 17.5427 104.328 17.5312C104.65 17.5082 104.925 17.6059 105.155 17.8242C105.385 18.0311 105.5 18.3012 105.5 18.6344C105.5 19.0137 105.42 19.2952 105.259 19.4791C105.109 19.6515 104.914 19.7951 104.673 19.9101L102.259 20.8237C101.788 21.0076 101.34 21.1914 100.915 21.3753C100.501 21.5477 100.122 21.7488 99.777 21.9786C99.4322 22.1855 99.2484 22.4211 99.2254 22.6854C99.2484 22.9382 99.4322 23.1738 99.777 23.3922C100.122 23.622 100.501 23.8289 100.915 24.0127C101.34 24.1851 101.788 24.3633 102.259 24.5471L104.948 25.5297C105.19 25.6446 105.385 25.794 105.535 25.9779C105.695 26.1503 105.776 26.4261 105.776 26.8053C105.776 27.1386 105.661 27.4144 105.431 27.6328C105.201 27.8396 104.925 27.9316 104.604 27.9086C104.454 27.8971 104.316 27.8626 104.19 27.8051L101.087 26.5295C99.777 26.0009 98.7312 25.478 97.9497 24.9608C97.1798 24.4322 96.789 23.6737 96.7776 22.6854C96.789 21.6971 97.1855 20.9386 97.967 20.41Z" fill="white"/>
<path d="M116.95 17.6519C117.536 17.6634 118.059 17.8472 118.519 18.2035C118.979 18.5597 119.346 18.985 119.622 19.4791C119.91 19.9733 120.122 20.4962 120.26 21.0478C120.398 21.5994 120.467 22.1625 120.467 22.7371C120.467 23.4956 120.346 24.2426 120.105 24.9781C119.875 25.7021 119.49 26.3456 118.95 26.9088C118.421 27.4719 117.755 27.7764 116.95 27.8224H110.934C110.13 27.7879 109.457 27.4891 108.917 26.926C108.377 26.3629 107.992 25.7136 107.762 24.9781C107.544 24.2426 107.435 23.4956 107.435 22.7371C107.435 21.9786 107.55 21.2374 107.78 20.5134C108.009 19.7779 108.389 19.1286 108.917 18.5655C109.457 17.9909 110.13 17.6863 110.934 17.6519H116.95ZM116.364 25.5125C116.801 25.4895 117.163 25.3286 117.45 25.0298C117.749 24.7195 117.962 24.3633 118.088 23.961C118.214 23.5588 118.278 23.1508 118.278 22.7371C118.278 22.3234 118.209 21.9212 118.071 21.5305C117.944 21.1282 117.738 20.772 117.45 20.4617C117.163 20.1514 116.801 19.9848 116.364 19.9618H111.469C111.032 19.9848 110.67 20.1514 110.383 20.4617C110.095 20.772 109.883 21.1282 109.745 21.5305C109.618 21.9212 109.555 22.3234 109.555 22.7371C109.555 23.1508 109.618 23.5588 109.745 23.961C109.871 24.3633 110.078 24.7195 110.365 25.0298C110.664 25.3286 111.032 25.4895 111.469 25.5125H116.364Z" fill="white"/>
<path d="M128.021 28.2189C127.424 28.2189 126.832 28.1499 126.246 28.012C125.671 27.8741 125.12 27.673 124.591 27.4087C124.062 27.1329 123.597 26.7708 123.195 26.3227C122.792 25.8745 122.574 25.3401 122.54 24.7195V18.4965C122.54 18.1748 122.655 17.9104 122.884 17.7036C123.126 17.4852 123.407 17.3761 123.729 17.3761C124.419 17.4335 124.792 17.807 124.85 18.4965V24.1851C124.873 24.5414 125.005 24.8402 125.246 25.0815C125.499 25.3114 125.775 25.4952 126.073 25.6331C126.384 25.771 126.7 25.8745 127.022 25.9434C127.355 26.0124 127.688 26.0468 128.021 26.0468C128.355 26.0468 128.682 26.0124 129.004 25.9434C129.337 25.8745 129.653 25.771 129.952 25.6331C130.262 25.4952 130.538 25.3114 130.779 25.0815C131.032 24.8402 131.17 24.5414 131.193 24.1851V18.4965C131.193 18.1748 131.308 17.9104 131.538 17.7036C131.779 17.4852 132.061 17.3761 132.383 17.3761C133.072 17.4335 133.451 17.807 133.52 18.4965V24.7195C133.486 25.3401 133.262 25.8745 132.848 26.3227C132.446 26.7708 131.98 27.1329 131.452 27.4087C130.923 27.673 130.366 27.8741 129.78 28.012C129.205 28.1499 128.619 28.2189 128.021 28.2189Z" fill="white"/>
<path d="M135.662 18.8068C135.662 18.485 135.771 18.215 135.99 17.9966C136.219 17.7668 136.495 17.6519 136.817 17.6519H146.85C147.171 17.6519 147.447 17.761 147.677 17.9794C147.895 18.2092 148.005 18.485 148.005 18.8068C148.005 19.1286 147.89 19.4044 147.66 19.6343C147.441 19.8526 147.171 19.9618 146.85 19.9618H143.005V26.9432C142.937 27.6328 142.557 28.0062 141.868 28.0637C141.546 28.0637 141.264 27.9603 141.023 27.7534C140.793 27.5351 140.678 27.265 140.678 26.9432V19.9618H136.817C136.495 19.9618 136.225 19.8469 136.007 19.617C135.777 19.3987 135.662 19.1286 135.662 18.8068Z" fill="white"/>
</svg>
